# MagicaVoxel @ ephtracy

# material
mtllib twink_baseball.mtl

# normals
vn -1 0 0
vn 1 0 0
vn 0 0 1
vn 0 0 -1
vn 0 -1 0
vn 0 1 0

# texcoords
vt 0.150391 0.5
vt 0.462891 0.5

# verts
v -2 3 -1
v -2 4 -1
v -2 4 -2
v -2 3 -2
v -2 3 -0
v -2 4 -0
v -2 3 1
v -2 4 1
v -2 3 2
v -2 4 2
v -2 2 -1
v -2 2 -2
v -2 2 -0
v -2 2 1
v -2 2 2
v -2 1 -1
v -2 1 -2
v -2 1 -0
v -2 1 1
v -2 1 2
v -2 0 -1
v -2 0 -2
v -2 0 -0
v -2 0 1
v -2 0 2
v 2 3 -1
v 2 3 -2
v 2 4 -2
v 2 4 -1
v 2 3 -0
v 2 4 -0
v 2 3 1
v 2 4 1
v 2 3 2
v 2 4 2
v 2 2 -1
v 2 2 -2
v 2 2 -0
v 2 2 1
v 2 2 2
v 2 1 -1
v 2 1 -2
v 2 1 -0
v 2 1 1
v 2 1 2
v 2 0 -1
v 2 0 -2
v 2 0 -0
v 2 0 1
v 2 0 2
v 1 3 2
v 1 4 2
v 0 3 2
v 0 4 2
v -1 3 2
v -1 4 2
v 1 2 2
v 0 2 2
v -1 2 2
v 1 1 2
v 0 1 2
v -1 1 2
v 1 0 2
v 0 0 2
v -1 0 2
v 1 3 -2
v 1 4 -2
v 0 3 -2
v 0 4 -2
v -1 3 -2
v -1 4 -2
v 1 2 -2
v 0 2 -2
v -1 2 -2
v 1 1 -2
v 0 1 -2
v -1 1 -2
v 1 0 -2
v 0 0 -2
v -1 0 -2
v 1 0 -1
v 0 0 -1
v -1 0 -1
v 1 0 -0
v 0 0 -0
v -1 0 -0
v 1 0 1
v 0 0 1
v -1 0 1
v 1 4 -1
v 0 4 -1
v -1 4 -1
v 1 4 -0
v 0 4 -0
v -1 4 -0
v 1 4 1
v 0 4 1
v -1 4 1

# faces

usemtl palette

f 1/2/1 2/2/1 3/2/1 4/2/1

f 5/2/1 6/2/1 2/2/1 1/2/1

f 7/2/1 8/2/1 6/2/1 5/2/1

f 9/2/1 10/2/1 8/2/1 7/2/1

f 11/2/1 1/2/1 4/2/1 12/2/1

f 13/2/1 5/2/1 1/2/1 11/2/1

f 14/2/1 7/2/1 5/2/1 13/2/1

f 15/2/1 9/2/1 7/2/1 14/2/1

f 16/2/1 11/2/1 12/2/1 17/2/1

f 18/2/1 13/2/1 11/2/1 16/2/1

f 19/2/1 14/2/1 13/2/1 18/2/1

f 20/2/1 15/2/1 14/2/1 19/2/1

f 21/2/1 16/2/1 17/2/1 22/2/1

f 23/2/1 18/2/1 16/2/1 21/2/1

f 24/2/1 19/2/1 18/2/1 23/2/1

f 25/2/1 20/2/1 19/2/1 24/2/1

f 26/2/2 27/2/2 28/2/2 29/2/2

f 30/2/2 26/2/2 29/2/2 31/2/2

f 32/2/2 30/2/2 31/2/2 33/2/2

f 34/2/2 32/2/2 33/2/2 35/2/2

f 36/2/2 37/2/2 27/2/2 26/2/2

f 38/2/2 36/2/2 26/2/2 30/2/2

f 39/2/2 38/2/2 30/2/2 32/2/2

f 40/2/2 39/2/2 32/2/2 34/2/2

f 41/2/2 42/2/2 37/2/2 36/2/2

f 43/2/2 41/2/2 36/2/2 38/2/2

f 44/2/2 43/2/2 38/2/2 39/2/2

f 45/2/2 44/2/2 39/2/2 40/2/2

f 46/2/2 47/2/2 42/2/2 41/2/2

f 48/2/2 46/2/2 41/2/2 43/2/2

f 49/2/2 48/2/2 43/2/2 44/2/2

f 50/2/2 49/2/2 44/2/2 45/2/2

f 51/2/3 34/2/3 35/2/3 52/2/3

f 53/1/3 51/1/3 52/1/3 54/1/3

f 55/2/3 53/2/3 54/2/3 56/2/3

f 9/2/3 55/2/3 56/2/3 10/2/3

f 57/2/3 40/2/3 34/2/3 51/2/3

f 58/1/3 57/1/3 51/1/3 53/1/3

f 59/2/3 58/2/3 53/2/3 55/2/3

f 15/2/3 59/2/3 55/2/3 9/2/3

f 60/2/3 45/2/3 40/2/3 57/2/3

f 61/1/3 60/1/3 57/1/3 58/1/3

f 62/1/3 61/1/3 58/1/3 59/1/3

f 20/2/3 62/2/3 59/2/3 15/2/3

f 63/2/3 50/2/3 45/2/3 60/2/3

f 64/2/3 63/2/3 60/2/3 61/2/3

f 65/1/3 64/1/3 61/1/3 62/1/3

f 25/2/3 65/2/3 62/2/3 20/2/3

f 66/2/4 67/2/4 28/2/4 27/2/4

f 68/2/4 69/2/4 67/2/4 66/2/4

f 70/1/4 71/1/4 69/1/4 68/1/4

f 4/2/4 3/2/4 71/2/4 70/2/4

f 72/2/4 66/2/4 27/2/4 37/2/4

f 73/1/4 68/1/4 66/1/4 72/1/4

f 74/1/4 70/1/4 68/1/4 73/1/4

f 12/2/4 4/2/4 70/2/4 74/2/4

f 75/2/4 72/2/4 37/2/4 42/2/4

f 76/1/4 73/1/4 72/1/4 75/1/4

f 77/2/4 74/2/4 73/2/4 76/2/4

f 17/2/4 12/2/4 74/2/4 77/2/4

f 78/2/4 75/2/4 42/2/4 47/2/4

f 79/1/4 76/1/4 75/1/4 78/1/4

f 80/2/4 77/2/4 76/2/4 79/2/4

f 22/2/4 17/2/4 77/2/4 80/2/4

f 81/2/5 78/2/5 47/2/5 46/2/5

f 82/1/5 79/1/5 78/1/5 81/1/5

f 83/2/5 80/2/5 79/2/5 82/2/5

f 21/2/5 22/2/5 80/2/5 83/2/5

f 84/2/5 81/2/5 46/2/5 48/2/5

f 85/1/5 82/1/5 81/1/5 84/1/5

f 86/1/5 83/1/5 82/1/5 85/1/5

f 23/2/5 21/2/5 83/2/5 86/2/5

f 87/2/5 84/2/5 48/2/5 49/2/5

f 88/2/5 85/2/5 84/2/5 87/2/5

f 89/1/5 86/1/5 85/1/5 88/1/5

f 24/2/5 23/2/5 86/2/5 89/2/5

f 63/2/5 87/2/5 49/2/5 50/2/5

f 64/2/5 88/2/5 87/2/5 63/2/5

f 65/1/5 89/1/5 88/1/5 64/1/5

f 25/2/5 24/2/5 89/2/5 65/2/5

f 90/2/6 29/2/6 28/2/6 67/2/6

f 91/2/6 90/2/6 67/2/6 69/2/6

f 92/1/6 91/1/6 69/1/6 71/1/6

f 2/2/6 92/2/6 71/2/6 3/2/6

f 93/2/6 31/2/6 29/2/6 90/2/6

f 94/2/6 93/2/6 90/2/6 91/2/6

f 95/1/6 94/1/6 91/1/6 92/1/6

f 6/2/6 95/2/6 92/2/6 2/2/6

f 96/2/6 33/2/6 31/2/6 93/2/6

f 97/1/6 96/1/6 93/1/6 94/1/6

f 98/1/6 97/1/6 94/1/6 95/1/6

f 8/2/6 98/2/6 95/2/6 6/2/6

f 52/2/6 35/2/6 33/2/6 96/2/6

f 54/1/6 52/1/6 96/1/6 97/1/6

f 56/2/6 54/2/6 97/2/6 98/2/6

f 10/2/6 56/2/6 98/2/6 8/2/6

# numNormals 6
# numTexCoords 2
# numVerts 98
# numFaces 96
